<mxfile host="app.diagrams.net" agent="Mozilla/5.0 (Windows NT 10.0; Win64; x64) AppleWebKit/537.36 (KHTML, like Gecko) Chrome/135.0.0.0 Safari/537.36" version="26.2.13">
  <diagram name="PÃ¡gina-1" id="mZQW4fi0oKs5TE2i5J2t">
    <mxGraphModel dx="1044" dy="580" grid="1" gridSize="10" guides="1" tooltips="1" connect="1" arrows="1" fold="1" page="1" pageScale="1" pageWidth="827" pageHeight="1169" math="0" shadow="0">
      <root>
        <mxCell id="0" />
        <mxCell id="1" parent="0" />
        <mxCell id="La2GDN7J3TuxR0nn211_-1" value="Empresa" style="swimlane;fontStyle=1;align=center;verticalAlign=top;childLayout=stackLayout;horizontal=1;startSize=26;horizontalStack=0;resizeParent=1;resizeParentMax=0;resizeLast=0;collapsible=1;marginBottom=0;whiteSpace=wrap;html=1;" parent="1" vertex="1">
          <mxGeometry x="45" y="289" width="240" height="240" as="geometry" />
        </mxCell>
        <mxCell id="La2GDN7J3TuxR0nn211_-2" value="- nombre: String&lt;div&gt;- cuit: String&lt;/div&gt;" style="text;strokeColor=none;fillColor=none;align=left;verticalAlign=top;spacingLeft=4;spacingRight=4;overflow=hidden;rotatable=0;points=[[0,0.5],[1,0.5]];portConstraint=eastwest;whiteSpace=wrap;html=1;" parent="La2GDN7J3TuxR0nn211_-1" vertex="1">
          <mxGeometry y="26" width="240" height="44" as="geometry" />
        </mxCell>
        <mxCell id="La2GDN7J3TuxR0nn211_-3" value="" style="line;strokeWidth=1;fillColor=none;align=left;verticalAlign=middle;spacingTop=-1;spacingLeft=3;spacingRight=3;rotatable=0;labelPosition=right;points=[];portConstraint=eastwest;strokeColor=inherit;" parent="La2GDN7J3TuxR0nn211_-1" vertex="1">
          <mxGeometry y="70" width="240" height="8" as="geometry" />
        </mxCell>
        <mxCell id="La2GDN7J3TuxR0nn211_-4" value="+ &lt;u&gt;new(String, String)&lt;/u&gt;&lt;div&gt;+ getNombre(): String&lt;/div&gt;&lt;div&gt;+ getCuit(): String&lt;/div&gt;&lt;div&gt;+ getCantidadDeEmpleados(): int&lt;/div&gt;&lt;div&gt;+ getTotalDeSueldosNetos(): float&lt;/div&gt;&lt;div&gt;+ getTotalDeSueldosBrutos(): float&lt;/div&gt;&lt;div&gt;+ getTotalDeRetenciones(): float&lt;/div&gt;&lt;div&gt;+ getCantidadDeRecibosDeHaberes(): int&lt;/div&gt;&lt;div&gt;+ addEmpleado(Empleado)&lt;/div&gt;&lt;div&gt;+ realizarLiquidacionDeSueldos()&lt;/div&gt;&lt;div&gt;&lt;br&gt;&lt;/div&gt;" style="text;strokeColor=none;fillColor=none;align=left;verticalAlign=top;spacingLeft=4;spacingRight=4;overflow=hidden;rotatable=0;points=[[0,0.5],[1,0.5]];portConstraint=eastwest;whiteSpace=wrap;html=1;" parent="La2GDN7J3TuxR0nn211_-1" vertex="1">
          <mxGeometry y="78" width="240" height="162" as="geometry" />
        </mxCell>
        <mxCell id="La2GDN7J3TuxR0nn211_-5" value="&lt;i&gt;Empleado&lt;/i&gt;" style="swimlane;fontStyle=1;align=center;verticalAlign=top;childLayout=stackLayout;horizontal=1;startSize=26;horizontalStack=0;resizeParent=1;resizeParentMax=0;resizeLast=0;collapsible=1;marginBottom=0;whiteSpace=wrap;html=1;" parent="1" vertex="1">
          <mxGeometry x="533" y="289" width="220" height="300" as="geometry" />
        </mxCell>
        <mxCell id="La2GDN7J3TuxR0nn211_-6" value="- nombre: String&lt;div&gt;- direccion: String&lt;/div&gt;&lt;div&gt;- estadoCivil: String&lt;/div&gt;&lt;div&gt;- fechaDeNacimiento: Date&lt;/div&gt;&lt;div&gt;- sueldoBasico: float&lt;/div&gt;" style="text;strokeColor=none;fillColor=none;align=left;verticalAlign=top;spacingLeft=4;spacingRight=4;overflow=hidden;rotatable=0;points=[[0,0.5],[1,0.5]];portConstraint=eastwest;whiteSpace=wrap;html=1;" parent="La2GDN7J3TuxR0nn211_-5" vertex="1">
          <mxGeometry y="26" width="220" height="104" as="geometry" />
        </mxCell>
        <mxCell id="La2GDN7J3TuxR0nn211_-7" value="" style="line;strokeWidth=1;fillColor=none;align=left;verticalAlign=middle;spacingTop=-1;spacingLeft=3;spacingRight=3;rotatable=0;labelPosition=right;points=[];portConstraint=eastwest;strokeColor=inherit;" parent="La2GDN7J3TuxR0nn211_-5" vertex="1">
          <mxGeometry y="130" width="220" height="8" as="geometry" />
        </mxCell>
        <mxCell id="La2GDN7J3TuxR0nn211_-8" value="+ &lt;u&gt;new(String, String, String, Date, float)&lt;/u&gt;&lt;div&gt;+ getNombre(): String&lt;/div&gt;&lt;div&gt;+ getDireccion(): String&lt;/div&gt;&lt;div&gt;+ getEstadoCivil(): String&lt;/div&gt;&lt;div&gt;+ getFechaDeNacimiento(): Date&lt;/div&gt;&lt;div&gt;+ getSueldoBasico(): float&lt;/div&gt;&lt;div&gt;+ getEdad(): int&lt;/div&gt;&lt;div&gt;+ getSueldoNeto(): float&lt;/div&gt;&lt;div&gt;+ &lt;b&gt;&lt;i&gt;geSueldoBruto(): float&lt;/i&gt;&lt;/b&gt;&lt;/div&gt;&lt;div&gt;+ &lt;i&gt;&lt;b&gt;getRetenciones(): float&lt;/b&gt;&lt;/i&gt;&lt;/div&gt;" style="text;strokeColor=none;fillColor=none;align=left;verticalAlign=top;spacingLeft=4;spacingRight=4;overflow=hidden;rotatable=0;points=[[0,0.5],[1,0.5]];portConstraint=eastwest;whiteSpace=wrap;html=1;" parent="La2GDN7J3TuxR0nn211_-5" vertex="1">
          <mxGeometry y="138" width="220" height="162" as="geometry" />
        </mxCell>
        <mxCell id="La2GDN7J3TuxR0nn211_-10" value="empleados" style="text;html=1;align=center;verticalAlign=middle;resizable=0;points=[];autosize=1;strokeColor=none;fillColor=none;" parent="1" vertex="1">
          <mxGeometry x="347" y="309" width="80" height="30" as="geometry" />
        </mxCell>
        <mxCell id="La2GDN7J3TuxR0nn211_-15" style="edgeStyle=orthogonalEdgeStyle;rounded=0;orthogonalLoop=1;jettySize=auto;html=1;exitX=1;exitY=0.5;exitDx=0;exitDy=0;endSize=12;endArrow=open;endFill=0;" parent="1" source="La2GDN7J3TuxR0nn211_-2" target="La2GDN7J3TuxR0nn211_-6" edge="1">
          <mxGeometry relative="1" as="geometry" />
        </mxCell>
        <mxCell id="La2GDN7J3TuxR0nn211_-16" value="N" style="text;html=1;align=center;verticalAlign=middle;resizable=0;points=[];autosize=1;strokeColor=none;fillColor=none;" parent="1" vertex="1">
          <mxGeometry x="496" y="333" width="30" height="30" as="geometry" />
        </mxCell>
        <mxCell id="La2GDN7J3TuxR0nn211_-26" style="edgeStyle=orthogonalEdgeStyle;rounded=0;orthogonalLoop=1;jettySize=auto;html=1;exitX=0.75;exitY=0;exitDx=0;exitDy=0;endArrow=block;endFill=0;endSize=12;" parent="1" source="La2GDN7J3TuxR0nn211_-17" target="La2GDN7J3TuxR0nn211_-5" edge="1">
          <mxGeometry relative="1" as="geometry" />
        </mxCell>
        <mxCell id="La2GDN7J3TuxR0nn211_-17" value="EmpleadoTemporal" style="swimlane;fontStyle=1;align=center;verticalAlign=top;childLayout=stackLayout;horizontal=1;startSize=26;horizontalStack=0;resizeParent=1;resizeParentMax=0;resizeLast=0;collapsible=1;marginBottom=0;whiteSpace=wrap;html=1;" parent="1" vertex="1">
          <mxGeometry x="220" y="758" width="280" height="240" as="geometry" />
        </mxCell>
        <mxCell id="La2GDN7J3TuxR0nn211_-18" value="- fechaDeFinDeDesignacion: Date&lt;div&gt;- cantidadDeHorasExtras: int&lt;/div&gt;" style="text;strokeColor=none;fillColor=none;align=left;verticalAlign=top;spacingLeft=4;spacingRight=4;overflow=hidden;rotatable=0;points=[[0,0.5],[1,0.5]];portConstraint=eastwest;whiteSpace=wrap;html=1;" parent="La2GDN7J3TuxR0nn211_-17" vertex="1">
          <mxGeometry y="26" width="280" height="44" as="geometry" />
        </mxCell>
        <mxCell id="La2GDN7J3TuxR0nn211_-19" value="" style="line;strokeWidth=1;fillColor=none;align=left;verticalAlign=middle;spacingTop=-1;spacingLeft=3;spacingRight=3;rotatable=0;labelPosition=right;points=[];portConstraint=eastwest;strokeColor=inherit;" parent="La2GDN7J3TuxR0nn211_-17" vertex="1">
          <mxGeometry y="70" width="280" height="8" as="geometry" />
        </mxCell>
        <mxCell id="La2GDN7J3TuxR0nn211_-20" value="+ &lt;u&gt;new(String, String, String, Date, float, Date, int)&lt;/u&gt;&lt;div&gt;+ getFechaDeFinDeDesignacion(): Date&lt;/div&gt;&lt;div&gt;+ getCantidadDeHorasExtras(): int&lt;/div&gt;&lt;div&gt;+ getSueldoBruto(): float&lt;/div&gt;&lt;div&gt;+ getRetenciones(): float&lt;/div&gt;&lt;div&gt;+ getPorCadaHoraExtra(): int&lt;/div&gt;&lt;div&gt;+ getRetencionPorObraSocial(): float&lt;/div&gt;&lt;div&gt;+ getRetencionPorSiSuperaLos50Anios(): float&lt;/div&gt;&lt;div&gt;+ getRetencionPorAportesJubilatorios(): float&lt;/div&gt;&lt;div&gt;+ getRetencionPorHoraExtra(): float&lt;/div&gt;&lt;div&gt;&lt;br&gt;&lt;/div&gt;" style="text;strokeColor=none;fillColor=none;align=left;verticalAlign=top;spacingLeft=4;spacingRight=4;overflow=hidden;rotatable=0;points=[[0,0.5],[1,0.5]];portConstraint=eastwest;whiteSpace=wrap;html=1;" parent="La2GDN7J3TuxR0nn211_-17" vertex="1">
          <mxGeometry y="78" width="280" height="162" as="geometry" />
        </mxCell>
        <mxCell id="La2GDN7J3TuxR0nn211_-27" style="edgeStyle=orthogonalEdgeStyle;rounded=0;orthogonalLoop=1;jettySize=auto;html=1;exitX=0.25;exitY=0;exitDx=0;exitDy=0;endArrow=block;endFill=0;endSize=12;" parent="1" source="La2GDN7J3TuxR0nn211_-21" target="La2GDN7J3TuxR0nn211_-5" edge="1">
          <mxGeometry relative="1" as="geometry" />
        </mxCell>
        <mxCell id="La2GDN7J3TuxR0nn211_-21" value="EmpleadoPermanente" style="swimlane;fontStyle=1;align=center;verticalAlign=top;childLayout=stackLayout;horizontal=1;startSize=26;horizontalStack=0;resizeParent=1;resizeParentMax=0;resizeLast=0;collapsible=1;marginBottom=0;whiteSpace=wrap;html=1;" parent="1" vertex="1">
          <mxGeometry x="573" y="758" width="280" height="270" as="geometry" />
        </mxCell>
        <mxCell id="La2GDN7J3TuxR0nn211_-22" value="- cantidadDeHijos: int&lt;div&gt;- antiguedad: int&lt;/div&gt;" style="text;strokeColor=none;fillColor=none;align=left;verticalAlign=top;spacingLeft=4;spacingRight=4;overflow=hidden;rotatable=0;points=[[0,0.5],[1,0.5]];portConstraint=eastwest;whiteSpace=wrap;html=1;" parent="La2GDN7J3TuxR0nn211_-21" vertex="1">
          <mxGeometry y="26" width="280" height="44" as="geometry" />
        </mxCell>
        <mxCell id="La2GDN7J3TuxR0nn211_-23" value="" style="line;strokeWidth=1;fillColor=none;align=left;verticalAlign=middle;spacingTop=-1;spacingLeft=3;spacingRight=3;rotatable=0;labelPosition=right;points=[];portConstraint=eastwest;strokeColor=inherit;" parent="La2GDN7J3TuxR0nn211_-21" vertex="1">
          <mxGeometry y="70" width="280" height="8" as="geometry" />
        </mxCell>
        <mxCell id="La2GDN7J3TuxR0nn211_-24" value="+ &lt;u&gt;new(String, String, String, Date, float, int, int)&lt;/u&gt;&lt;div&gt;&lt;div&gt;+ getCantidadDeHijos(): int&lt;/div&gt;&lt;div&gt;+ getAntiguedad(): int&lt;/div&gt;&lt;div&gt;+ getSueldoBruto(): float&lt;/div&gt;&lt;div&gt;+ getRetenciones(): float&lt;/div&gt;&lt;div&gt;+ getAsignacionPorHijo(): float&lt;/div&gt;&lt;div&gt;+ getAsignacionPorSiTieneConyuge(): float&lt;/div&gt;&lt;div&gt;+ getAsignacionPorAntiguedad(): float&lt;/div&gt;&lt;/div&gt;&lt;div&gt;+ getRetenciones(): float&lt;/div&gt;&lt;div&gt;+ getRetencionPorObraSocial(): float&lt;/div&gt;&lt;div&gt;+ getRetencionPorHijo(): float&lt;/div&gt;&lt;div&gt;+ getRetencionPorAportesJubilatorios(): float&lt;/div&gt;" style="text;strokeColor=none;fillColor=none;align=left;verticalAlign=top;spacingLeft=4;spacingRight=4;overflow=hidden;rotatable=0;points=[[0,0.5],[1,0.5]];portConstraint=eastwest;whiteSpace=wrap;html=1;" parent="La2GDN7J3TuxR0nn211_-21" vertex="1">
          <mxGeometry y="78" width="280" height="192" as="geometry" />
        </mxCell>
        <mxCell id="La2GDN7J3TuxR0nn211_-28" value="ReciboDeHaberes" style="swimlane;fontStyle=1;align=center;verticalAlign=top;childLayout=stackLayout;horizontal=1;startSize=26;horizontalStack=0;resizeParent=1;resizeParentMax=0;resizeLast=0;collapsible=1;marginBottom=0;whiteSpace=wrap;html=1;" parent="1" vertex="1">
          <mxGeometry x="296" y="43" width="180" height="230" as="geometry" />
        </mxCell>
        <mxCell id="La2GDN7J3TuxR0nn211_-29" value="- nombreEmpleado: String&lt;div&gt;- direccion: String&lt;/div&gt;&lt;div&gt;- fechaDeEmision: Date&lt;/div&gt;&lt;div&gt;- sueldoBruto: float&lt;/div&gt;&lt;div&gt;- sueldoNeto: float&lt;/div&gt;" style="text;strokeColor=none;fillColor=none;align=left;verticalAlign=top;spacingLeft=4;spacingRight=4;overflow=hidden;rotatable=0;points=[[0,0.5],[1,0.5]];portConstraint=eastwest;whiteSpace=wrap;html=1;" parent="La2GDN7J3TuxR0nn211_-28" vertex="1">
          <mxGeometry y="26" width="180" height="94" as="geometry" />
        </mxCell>
        <mxCell id="La2GDN7J3TuxR0nn211_-30" value="" style="line;strokeWidth=1;fillColor=none;align=left;verticalAlign=middle;spacingTop=-1;spacingLeft=3;spacingRight=3;rotatable=0;labelPosition=right;points=[];portConstraint=eastwest;strokeColor=inherit;" parent="La2GDN7J3TuxR0nn211_-28" vertex="1">
          <mxGeometry y="120" width="180" height="8" as="geometry" />
        </mxCell>
        <mxCell id="La2GDN7J3TuxR0nn211_-31" value="+ &lt;u&gt;new(Empleado)&lt;/u&gt;&lt;div&gt;+ getNombreEmpleado(): String&lt;/div&gt;&lt;div&gt;+ getDireccion(): String&lt;/div&gt;&lt;div&gt;+ getFechaDeEmision(): Date&lt;/div&gt;&lt;div&gt;+ getSueldoBruto(): float&lt;/div&gt;&lt;div&gt;+ getSueldoNeto(): float&lt;/div&gt;" style="text;strokeColor=none;fillColor=none;align=left;verticalAlign=top;spacingLeft=4;spacingRight=4;overflow=hidden;rotatable=0;points=[[0,0.5],[1,0.5]];portConstraint=eastwest;whiteSpace=wrap;html=1;" parent="La2GDN7J3TuxR0nn211_-28" vertex="1">
          <mxGeometry y="128" width="180" height="102" as="geometry" />
        </mxCell>
        <mxCell id="La2GDN7J3TuxR0nn211_-32" style="edgeStyle=orthogonalEdgeStyle;rounded=0;orthogonalLoop=1;jettySize=auto;html=1;exitX=0;exitY=0.5;exitDx=0;exitDy=0;entryX=0.002;entryY=1.036;entryDx=0;entryDy=0;entryPerimeter=0;endArrow=open;endFill=0;endSize=12;" parent="1" source="La2GDN7J3TuxR0nn211_-2" target="La2GDN7J3TuxR0nn211_-29" edge="1">
          <mxGeometry relative="1" as="geometry" />
        </mxCell>
        <mxCell id="La2GDN7J3TuxR0nn211_-33" value="N" style="text;html=1;align=center;verticalAlign=middle;resizable=0;points=[];autosize=1;strokeColor=none;fillColor=none;" parent="1" vertex="1">
          <mxGeometry x="255" y="133" width="30" height="30" as="geometry" />
        </mxCell>
        <mxCell id="La2GDN7J3TuxR0nn211_-34" value="recibosDeHaberes" style="text;html=1;align=center;verticalAlign=middle;resizable=0;points=[];autosize=1;strokeColor=none;fillColor=none;" parent="1" vertex="1">
          <mxGeometry x="26" y="223" width="120" height="30" as="geometry" />
        </mxCell>
        <mxCell id="uDLKchhXDwje42bqczU5-5" style="edgeStyle=orthogonalEdgeStyle;rounded=0;orthogonalLoop=1;jettySize=auto;html=1;exitX=0.25;exitY=0;exitDx=0;exitDy=0;endArrow=block;endFill=0;endSize=12;" edge="1" parent="1" source="uDLKchhXDwje42bqczU5-1" target="La2GDN7J3TuxR0nn211_-5">
          <mxGeometry relative="1" as="geometry">
            <mxPoint x="750" y="640" as="targetPoint" />
          </mxGeometry>
        </mxCell>
        <mxCell id="uDLKchhXDwje42bqczU5-1" value="Contratado" style="swimlane;fontStyle=1;align=center;verticalAlign=top;childLayout=stackLayout;horizontal=1;startSize=26;horizontalStack=0;resizeParent=1;resizeParentMax=0;resizeLast=0;collapsible=1;marginBottom=0;whiteSpace=wrap;html=1;" vertex="1" parent="1">
          <mxGeometry x="920" y="758" width="300" height="180" as="geometry" />
        </mxCell>
        <mxCell id="uDLKchhXDwje42bqczU5-2" value="- numeroDeContrato: int&lt;div&gt;- medioDePago: String&lt;/div&gt;" style="text;strokeColor=none;fillColor=none;align=left;verticalAlign=top;spacingLeft=4;spacingRight=4;overflow=hidden;rotatable=0;points=[[0,0.5],[1,0.5]];portConstraint=eastwest;whiteSpace=wrap;html=1;" vertex="1" parent="uDLKchhXDwje42bqczU5-1">
          <mxGeometry y="26" width="300" height="44" as="geometry" />
        </mxCell>
        <mxCell id="uDLKchhXDwje42bqczU5-3" value="" style="line;strokeWidth=1;fillColor=none;align=left;verticalAlign=middle;spacingTop=-1;spacingLeft=3;spacingRight=3;rotatable=0;labelPosition=right;points=[];portConstraint=eastwest;strokeColor=inherit;" vertex="1" parent="uDLKchhXDwje42bqczU5-1">
          <mxGeometry y="70" width="300" height="8" as="geometry" />
        </mxCell>
        <mxCell id="uDLKchhXDwje42bqczU5-4" value="+ new(String, String, String, Datem float, int, String)&lt;div&gt;+ getNumeroDeContrato(): int&lt;/div&gt;&lt;div&gt;+ getMedioDePago(): String&lt;/div&gt;&lt;div&gt;+ getSueldoBruto(): float&lt;/div&gt;&lt;div&gt;+ getRetenciones(): int&lt;/div&gt;" style="text;strokeColor=none;fillColor=none;align=left;verticalAlign=top;spacingLeft=4;spacingRight=4;overflow=hidden;rotatable=0;points=[[0,0.5],[1,0.5]];portConstraint=eastwest;whiteSpace=wrap;html=1;" vertex="1" parent="uDLKchhXDwje42bqczU5-1">
          <mxGeometry y="78" width="300" height="102" as="geometry" />
        </mxCell>
      </root>
    </mxGraphModel>
  </diagram>
</mxfile>
